<svg xmlns="http://www.w3.org/2000/svg" width="1200" height="480" viewBox="0 0 1200 480" role="img" aria-labelledby="title desc">
  <title id="title">Three-step installation</title><desc id="desc">Download the DMG, drag the app to Applications, then open it.</desc>
  <rect width="1200" height="480" rx="40" fill="#f4f5f7"/>
  <g font-family="-apple-system,BlinkMacSystemFont,'Segoe UI',sans-serif">
    <g transform="translate(55 65)"><rect width="310" height="350" rx="30" fill="#fff" stroke="#d9dce2"/><circle cx="46" cy="46" r="24" fill="#111827"/><text x="46" y="55" text-anchor="middle" fill="#fff" font-size="25" font-weight="700">1</text><path d="M155 92v112m-42-38 42 42 42-42" fill="none" stroke="#1677ff" stroke-width="15" stroke-linecap="round" stroke-linejoin="round"/><path d="M91 238h128" stroke="#1677ff" stroke-width="15" stroke-linecap="round"/><text x="155" y="306" text-anchor="middle" fill="#16181d" font-size="26" font-weight="650">DMG</text></g>
    <path d="M388 240h62" stroke="#8c93a1" stroke-width="8" stroke-linecap="round"/><path d="m438 222 22 18-22 18" fill="none" stroke="#8c93a1" stroke-width="8" stroke-linecap="round" stroke-linejoin="round"/>
    <g transform="translate(445 65)"><rect width="310" height="350" rx="30" fill="#fff" stroke="#d9dce2"/><circle cx="46" cy="46" r="24" fill="#111827"/><text x="46" y="55" text-anchor="middle" fill="#fff" font-size="25" font-weight="700">2</text><rect x="73" y="105" width="90" height="90" rx="22" fill="#050608"/><rect x="91" y="135" width="50" height="26" rx="7" fill="#37d568"/><rect x="143" y="143" width="5" height="10" rx="2" fill="#37d568"/><path d="M178 150h52" stroke="#8c93a1" stroke-width="8" stroke-linecap="round"/><path d="m218 132 22 18-22 18" fill="none" stroke="#8c93a1" stroke-width="8" stroke-linecap="round" stroke-linejoin="round"/><rect x="115" y="222" width="118" height="74" rx="18" fill="#1677ff"/><path d="M149 249h18l8-10h24l8 10h10v30h-68z" fill="#fff"/><text x="155" y="326" text-anchor="middle" fill="#16181d" font-size="25" font-weight="650">Applications</text></g>
    <path d="M778 240h62" stroke="#8c93a1" stroke-width="8" stroke-linecap="round"/><path d="m828 222 22 18-22 18" fill="none" stroke="#8c93a1" stroke-width="8" stroke-linecap="round" stroke-linejoin="round"/>
    <g transform="translate(835 65)"><rect width="310" height="350" rx="30" fill="#fff" stroke="#d9dce2"/><circle cx="46" cy="46" r="24" fill="#111827"/><text x="46" y="55" text-anchor="middle" fill="#fff" font-size="25" font-weight="700">3</text><rect x="102" y="98" width="106" height="106" rx="27" fill="#050608"/><rect x="122" y="134" width="62" height="32" rx="9" fill="#37d568"/><rect x="186" y="144" width="7" height="12" rx="3" fill="#37d568"/><path d="m137 247 18 18 39-45" fill="none" stroke="#28a745" stroke-width="13" stroke-linecap="round" stroke-linejoin="round"/><text x="155" y="326" text-anchor="middle" fill="#16181d" font-size="25" font-weight="650">Open</text></g>
  </g>
</svg>
